# xmcd
#
# Track frame offsets:
#	150
#	11817
#	25416
#	36108
#	48738
#	60361
#	72087
#	86482
#	100236
#	113880
#	127545
#	141999
#
# Disc length: 2075 seconds
#
# Revision: 1
# Processed by: cddbd v1.5.2PL0 Copyright (c) Steve Scherf et al.
# Submitted via: audiograbber 1.83.01
#
DISCID=9c08190c
DTITLE=Kenyon - Country to the Bone
DYEAR=1900
DGENRE=Country
TTITLE0=TradeMark
TTITLE1=Charlie's Angel
TTITLE2=In The Jailhouse Now
TTITLE3=These Lonely Hands of Mine
TTITLE4=Tiger By The Tail
TTITLE5=Poison Love
TTITLE6=Mom And Dads Waltz
TTITLE7=Let Old Mother Nature Have her Way
TTITLE8=They'll Never Take Her Love From Me
TTITLE9=Walking The Floor Over Yoiu
TTITLE10=SawMill
TTITLE11=Folsom Prison Blues
EXTD=
EXTT0=
EXTT1=
EXTT2=
EXTT3=
EXTT4=
EXTT5=
EXTT6=
EXTT7=
EXTT8=
EXTT9=
EXTT10=
EXTT11=
PLAYORDER=
